<svg xmlns="http://www.w3.org/2000/svg" width="41.541" height="36.887" viewBox="0 0 41.541 36.887">
  <g id="Group_12702" data-name="Group 12702" transform="translate(-4587.693 1126.5)">
    <line id="Line_6" data-name="Line 6" y2="36.887" transform="translate(4628.983 -1126.5)" fill="none" stroke="#1a1818" stroke-miterlimit="10" stroke-width="0.5" opacity="0.5"/>
    <g id="Group_12629" data-name="Group 12629" transform="translate(4587.693 -1123.016)">
      <path id="Path_268" data-name="Path 268" d="M590.331,651.477l1.487.055a9.208,9.208,0,0,1,2.619.466,5.511,5.511,0,0,1,2.772,1.885,3.45,3.45,0,0,1,.529,3.655,3.91,3.91,0,0,1-2.464,2.092l-.017.005a8.263,8.263,0,0,1-2.577.336c-.158,0-.317-.009-.475-.007h0a1.772,1.772,0,0,0-1.764,1.772v11.139a1.613,1.613,0,0,1-1.619,1.613l-3.685-.014.042-12.856a1.617,1.617,0,0,0-1.6-1.622l-.3,0a1.8,1.8,0,0,0-1.823,1.8l-.054,14.669a1.551,1.551,0,0,0,1.552,1.557l9.561-.006a1.62,1.62,0,0,0,1.619-1.62V664.306a1.245,1.245,0,0,1,1.173-1.243l.563-.033a7.844,7.844,0,0,0,2.691-.637,5.541,5.541,0,0,0,3.077-2.632,7.322,7.322,0,0,0-.619-7.89,10.121,10.121,0,0,0-8.3-4.418h-4.641Z" transform="translate(-579.404 -647.455)" fill="#072a52"/>
      <path id="Path_269" data-name="Path 269" d="M580.782,763.494a1.9,1.9,0,0,1,1.942-1.913,1.859,1.859,0,0,1,2.022,1.731v5.746l-1.982-2.158-1.982,2.158Z" transform="translate(-578.849 -749.271)" fill="#ffb500"/>
      <path id="Path_270" data-name="Path 270" d="M562.861,705.713a.392.392,0,0,1,.212-.188q1.928-.861,3.853-1.727a.382.382,0,0,1,.343,0q1.929.869,3.861,1.73c.168.075.266.24.161.4a.158.158,0,0,0-.013.083c0,.7,0,1.394,0,2.091a.109.109,0,0,0,.069.111.636.636,0,0,1-.353,1.189.637.637,0,0,1-.587-.505.647.647,0,0,1,.315-.687.128.128,0,0,0,.061-.087c0-.637,0-1.273,0-1.91a.466.466,0,0,0-.006-.05c-.031.008-.058.013-.084.021-.269.089-.537.181-.807.265a.1.1,0,0,0-.081.115c0,.545,0,1.09,0,1.635a.278.278,0,0,1-.1.25.286.286,0,0,1-.268.024c-.368-.1-.734-.221-1.108-.3a6.123,6.123,0,0,0-1.616-.105,7.064,7.064,0,0,0-1.968.406.242.242,0,0,1-.348-.252c0-.545,0-1.09,0-1.635a.114.114,0,0,0-.092-.133c-.4-.135-.806-.277-1.209-.414a.351.351,0,0,1-.233-.185Z" transform="translate(-562.861 -697.684)" fill="#072a52"/>
    </g>
  </g>
</svg>
