<svg xmlns="http://www.w3.org/2000/svg" width="249.459" height="36.009" viewBox="0 0 249.459 36.009">
  <g id="Group_12635" data-name="Group 12635" transform="translate(-4587.693 1126.5)">
    <line id="Line_6" data-name="Line 6" y2="36.009" transform="translate(4628 -1126.5)" fill="none" stroke="#1a1818" stroke-miterlimit="10" stroke-width="0.5" opacity="0.5"/>
    <g id="Group_12629" data-name="Group 12629" transform="translate(4587.693 -1123.099)">
      <path id="Path_268" data-name="Path 268" d="M590.119,651.381l1.452.054a8.992,8.992,0,0,1,2.557.455,5.38,5.38,0,0,1,2.706,1.84,3.367,3.367,0,0,1,.516,3.568,3.817,3.817,0,0,1-2.405,2.042l-.017.005a8.061,8.061,0,0,1-2.515.328c-.155,0-.309-.009-.464-.007h0a1.73,1.73,0,0,0-1.722,1.73V672.27a1.575,1.575,0,0,1-1.581,1.575l-3.6-.014.041-12.549a1.578,1.578,0,0,0-1.56-1.583l-.293,0a1.76,1.76,0,0,0-1.78,1.753l-.053,14.32a1.514,1.514,0,0,0,1.515,1.52l9.333-.005a1.581,1.581,0,0,0,1.58-1.581V663.9a1.215,1.215,0,0,1,1.145-1.213l.55-.032a7.657,7.657,0,0,0,2.627-.622,5.409,5.409,0,0,0,3-2.569,7.148,7.148,0,0,0-.6-7.7,9.88,9.88,0,0,0-8.106-4.312h-4.53Z" transform="translate(-579.451 -647.455)" fill="#072a52"/>
      <path id="Path_269" data-name="Path 269" d="M580.782,763.448a1.852,1.852,0,0,1,1.9-1.867,1.814,1.814,0,0,1,1.974,1.69v5.609l-1.935-2.107-1.935,2.107Z" transform="translate(-578.895 -749.564)" fill="#ffb500"/>
      <path id="Path_270" data-name="Path 270" d="M562.861,705.666a.382.382,0,0,1,.207-.183q1.882-.84,3.761-1.686a.373.373,0,0,1,.335,0q1.883.849,3.769,1.689c.164.073.26.234.157.388a.154.154,0,0,0-.013.081c0,.68,0,1.361,0,2.041a.107.107,0,0,0,.068.109.62.62,0,0,1-.344,1.16.622.622,0,0,1-.573-.493.631.631,0,0,1,.307-.671.125.125,0,0,0,.059-.085c0-.621,0-1.243,0-1.864a.464.464,0,0,0-.006-.049c-.03.008-.056.013-.082.021-.262.087-.524.176-.787.259a.1.1,0,0,0-.079.112c0,.532,0,1.064,0,1.6a.271.271,0,0,1-.1.244.278.278,0,0,1-.262.023c-.359-.1-.717-.215-1.082-.292a5.962,5.962,0,0,0-1.578-.1,6.893,6.893,0,0,0-1.921.4.236.236,0,0,1-.34-.246c0-.532,0-1.064,0-1.6a.112.112,0,0,0-.09-.13c-.394-.132-.786-.271-1.18-.4a.342.342,0,0,1-.227-.18Z" transform="translate(-562.861 -697.828)" fill="#072a52"/>
    </g>
    <g id="Group_12630" data-name="Group 12630" transform="translate(4650.949 -1123.553)">
      <path id="Path_276" data-name="Path 276" d="M476.375,185.781a1.5,1.5,0,0,1-.441-1.141,1.518,1.518,0,0,1,.441-1.121,1.547,1.547,0,0,1,2.162,0,1.521,1.521,0,0,1,.44,1.121,1.543,1.543,0,0,1-2.6,1.141Z" transform="translate(-475.934 -183.079)" fill="#ffb500"/>
      <rect id="Rectangle_106" data-name="Rectangle 106" width="1.802" height="21.739" transform="translate(0.601 7.967)" fill="#111415"/>
      <path id="Path_277" data-name="Path 277" d="M577.986,204.148q-2.322,2.062-6.886,2.062h-6.005v12.331h-1.8v-28.1H571.1q4.644,0,6.926,2.142a7.554,7.554,0,0,1,2.282,5.785A7.334,7.334,0,0,1,577.986,204.148Zm.521-5.785a6.077,6.077,0,0,0-1.762-4.7q-1.762-1.622-5.645-1.621h-6.005v12.571H571.1Q578.506,204.608,578.507,198.363Z" transform="translate(-544.276 -188.834)" fill="#111415"/>
      <path id="Path_278" data-name="Path 278" d="M705.88,223.636a9.5,9.5,0,0,1,3.724-3.883,10.739,10.739,0,0,1,5.424-1.361,9.937,9.937,0,0,1,5.845,1.681,8.924,8.924,0,0,1,3.363,4.284v-5.685h1.8v21.739h-1.8v-5.725a8.971,8.971,0,0,1-3.383,4.344,9.874,9.874,0,0,1-5.825,1.7,10.613,10.613,0,0,1-5.424-1.381,9.6,9.6,0,0,1-3.724-3.924,13.627,13.627,0,0,1,0-11.79Zm17.175.861a8.421,8.421,0,0,0-3.223-3.363,8.953,8.953,0,0,0-4.564-1.181,9.213,9.213,0,0,0-4.644,1.141,7.861,7.861,0,0,0-3.123,3.3,12.275,12.275,0,0,0,0,10.249,7.955,7.955,0,0,0,3.143,3.323,9.637,9.637,0,0,0,9.208-.02,8.243,8.243,0,0,0,3.223-3.363,10.623,10.623,0,0,0,1.161-5.065A10.393,10.393,0,0,0,723.055,224.5Z" transform="translate(-654.775 -210.704)" fill="#111415"/>
      <path id="Path_279" data-name="Path 279" d="M884.085,218.916a9.762,9.762,0,0,1,5.2-1.261v1.882h-.6a7.886,7.886,0,0,0-5.325,1.822q-2.122,1.822-2.122,5.945v12.531h-1.8V218.1h1.8v4.484A6.606,6.606,0,0,1,884.085,218.916Z" transform="translate(-791.604 -210.128)" fill="#111415"/>
      <path id="Path_280" data-name="Path 280" d="M1005.923,193.276q2.442,2.382,2.442,7.066v12.731H1006.6V200.462a8.3,8.3,0,0,0-1.962-5.945,7,7,0,0,0-5.325-2.062,7.343,7.343,0,0,0-5.625,2.242q-2.1,2.242-2.1,6.646v11.731h-1.8V183.447h1.8v12.491a7.2,7.2,0,0,1,3.083-3.743,9.44,9.44,0,0,1,4.964-1.3A8.626,8.626,0,0,1,1005.923,193.276Z" transform="translate(-877.931 -183.367)" fill="#111415"/>
      <path id="Path_281" data-name="Path 281" d="M1146.537,223.636a9.5,9.5,0,0,1,3.724-3.883,10.738,10.738,0,0,1,5.425-1.361,9.937,9.937,0,0,1,5.845,1.681,8.925,8.925,0,0,1,3.363,4.284v-5.685h1.8v21.739h-1.8v-5.725a8.973,8.973,0,0,1-3.383,4.344,9.872,9.872,0,0,1-5.825,1.7,10.612,10.612,0,0,1-5.425-1.381,9.6,9.6,0,0,1-3.724-3.924,13.627,13.627,0,0,1,0-11.79Zm17.175.861a8.422,8.422,0,0,0-3.223-3.363,8.953,8.953,0,0,0-4.564-1.181,9.213,9.213,0,0,0-4.644,1.141,7.861,7.861,0,0,0-3.123,3.3,12.272,12.272,0,0,0,0,10.249,7.955,7.955,0,0,0,3.143,3.323,9.637,9.637,0,0,0,9.208-.02,8.244,8.244,0,0,0,3.223-3.363,10.625,10.625,0,0,0,1.161-5.065A10.4,10.4,0,0,0,1163.712,224.5Z" transform="translate(-999.509 -210.704)" fill="#111415"/>
      <path id="Path_282" data-name="Path 282" d="M1317.779,185.781a1.5,1.5,0,0,1-.44-1.141,1.519,1.519,0,0,1,.44-1.121,1.547,1.547,0,0,1,2.162,0,1.52,1.52,0,0,1,.44,1.121,1.543,1.543,0,0,1-2.6,1.141Z" transform="translate(-1134.179 -183.079)" fill="#ffb500"/>
      <rect id="Rectangle_107" data-name="Rectangle 107" width="1.802" height="21.739" transform="translate(183.761 7.967)" fill="#111415"/>
    </g>
  </g>
</svg>
