<svg xmlns="http://www.w3.org/2000/svg" xmlns:xlink="http://www.w3.org/1999/xlink" width="1366" height="759" viewBox="0 0 1366 759">
  <defs>
    <clipPath id="clip-loginGames">
      <rect width="1366" height="759"/>
    </clipPath>
  </defs>
  <g id="loginGames" clip-path="url(#clip-loginGames)">
    <rect width="1366" height="759" fill="#fff"/>
    <path id="Path_41048" data-name="Path 41048" d="M380.678,57.8c24.411-21.729,62.729-26.183,97.612-24.453,109.554,5.449,208.445,58.333,293.989,118.162,30.972,21.653,61.459,45,81.558,74.822,40.95,60.715,28.782,144.822-28.113,194.839-19.364,17.015-42.831,30.086-66.924,41.627-42.839,20.559-89.063,37.064-137.685,41.786-34.666,3.343-69.766.627-104.239-4.045-96.3-13.087-190.811-41.97-270.062-91.377-34.749-21.67-67.5-48.614-81.825-83.655s-5.156-79.5,30.328-100.286c14.675-8.583,32.225-12.461,49.4-16.1,25.289-5.357,50.979-10.639,73.794-21.528,23.576-11.249,51.48-33,46.8-57.907C360.328,102.992,356.3,79.525,380.678,57.8Z" transform="matrix(-0.966, 0.259, -0.259, -0.966, 672.656, 331.794)" fill="#ffc300" opacity="0.1"/>
    <path id="Path_41047" data-name="Path 41047" d="M380.678,57.8c24.411-21.729,62.729-26.183,97.612-24.453,109.554,5.449,208.445,58.333,293.989,118.162,30.972,21.653,61.459,45,81.558,74.822,40.95,60.715,28.782,144.822-28.113,194.839-19.364,17.015-42.831,30.086-66.924,41.627-42.839,20.559-89.063,37.064-137.685,41.786-34.666,3.343-69.766.627-104.239-4.045-96.3-13.087-190.811-41.97-270.062-91.377-34.749-21.67-67.5-48.614-81.825-83.655s-5.156-79.5,30.328-100.286c14.675-8.583,32.225-12.461,49.4-16.1,25.289-5.357,50.979-10.639,73.794-21.528,23.576-11.249,51.48-33,46.8-57.907C360.328,102.992,356.3,79.525,380.678,57.8Z" transform="translate(663.219 583.424) rotate(-30)" fill="#ffc300" opacity="0.1"/>
  </g>
</svg>
