<svg xmlns="http://www.w3.org/2000/svg" xmlns:xlink="http://www.w3.org/1999/xlink" width="1366" height="645" viewBox="0 0 1366 645">
  <defs>
    <linearGradient id="linear-gradient" x1="0.5" y1="1" x2="0.5" gradientUnits="objectBoundingBox">
      <stop offset="0" stop-color="gray" stop-opacity="0.251"/>
      <stop offset="0.54" stop-color="gray" stop-opacity="0.122"/>
      <stop offset="1" stop-color="gray" stop-opacity="0.102"/>
    </linearGradient>
    <clipPath id="clip-Learning_and_Assessment_Modes_4">
      <rect width="1366" height="645"/>
    </clipPath>
  </defs>
  <g id="Learning_and_Assessment_Modes_4" data-name="Learning and Assessment Modes – 4" clip-path="url(#clip-Learning_and_Assessment_Modes_4)">
    <rect width="1366" height="645" fill="#fff"/>
    <g id="Group_12703" data-name="Group 12703" transform="translate(-22.677 82.555)">
      <rect id="Rectangle_67" data-name="Rectangle 67" width="1366" height="756.561" transform="translate(22.677 -82.555)" fill="#f9fdff"/>
      <g id="undraw_children_4rtb" transform="translate(43.922 306.604)">
        <g id="Group_15" data-name="Group 15" transform="translate(81.251 111.419)" opacity="0.1">
          <path id="Path_62" data-name="Path 62" d="M645.86,521.151s18.172-38.227,52.1-52.409c14.245-5.952,26.021-15.493,33.239-27.544a96.977,96.977,0,0,0,8.313-17.867" transform="translate(-634.45 -395.242)" fill="none" stroke="#535461" stroke-miterlimit="10" stroke-width="2"/>
          <path id="Path_63" data-name="Path 63" d="M815.592,399.3c-3.783,4.58-23.392,11.26-23.392,11.26s2.365-19.868,6.134-24.442a11.328,11.328,0,0,1,15.486-1.7,10.313,10.313,0,0,1,1.772,14.879Z" transform="translate(-687.678 -382.12)" fill="#ffb500"/>
          <path id="Path_64" data-name="Path 64" d="M804.5,450.88c-5.766,1.861-26-2.774-26-2.774s13.216-15.438,18.982-17.305a11.122,11.122,0,0,1,13.952,6.666A10.5,10.5,0,0,1,804.5,450.88Z" transform="translate(-683.316 -397.443)" fill="#ffb500"/>
          <path id="Path_65" data-name="Path 65" d="M753.333,513.647c-5.957-1.186-20.993-14.995-20.993-14.995s19.534-6.932,25.478-5.719a10.6,10.6,0,0,1,8.541,12.521A11.013,11.013,0,0,1,753.333,513.647Z" transform="translate(-668.618 -417.359)" fill="#ffb500"/>
          <path id="Path_66" data-name="Path 66" d="M700.611,552.309c-6.08-.2-23.331-11.383-23.331-11.383s18.021-9.992,24.1-9.787a10.6,10.6,0,1,1-.77,21.17Z" transform="translate(-651.086 -429.568)" fill="#ffb500"/>
          <path id="Path_67" data-name="Path 67" d="M750.827,431.869c.777,5.8,13.952,21.272,13.952,21.272s8.676-18.178,7.9-23.978a10.947,10.947,0,0,0-12.337-9.154A10.675,10.675,0,0,0,750.827,431.869Z" transform="translate(-674.475 -394.157)" fill="#ffb500"/>
          <path id="Path_68" data-name="Path 68" d="M690.623,476.556c2.549,5.309,19.936,16.283,19.936,16.283s2.624-19.841.075-25.151a11.212,11.212,0,0,0-14.613-5.153,10.428,10.428,0,0,0-5.4,14.02Z" transform="translate(-655.023 -407.409)" fill="#ffb500"/>
          <path id="Path_69" data-name="Path 69" d="M639.2,529.826c1.574,5.65,16.787,19.289,16.787,19.289s6.073-19.125,4.492-24.776a11.084,11.084,0,0,0-13.5-7.5,10.551,10.551,0,0,0-7.784,12.984Z" transform="translate(-638.849 -424.902)" fill="#ffb500"/>
          <path id="Path_70" data-name="Path 70" d="M815.592,399.3c-3.783,4.58-23.392,11.26-23.392,11.26s2.365-19.868,6.134-24.442a11.328,11.328,0,0,1,15.486-1.7,10.313,10.313,0,0,1,1.772,14.879Z" transform="translate(-687.678 -382.12)" opacity="0.25"/>
          <path id="Path_71" data-name="Path 71" d="M804.5,450.88c-5.766,1.861-26-2.774-26-2.774s13.216-15.438,18.982-17.305a11.122,11.122,0,0,1,13.952,6.666A10.5,10.5,0,0,1,804.5,450.88Z" transform="translate(-683.316 -397.443)" opacity="0.25"/>
          <path id="Path_72" data-name="Path 72" d="M753.333,513.647c-5.957-1.186-20.993-14.995-20.993-14.995s19.534-6.932,25.478-5.719a10.6,10.6,0,0,1,8.541,12.521A11.013,11.013,0,0,1,753.333,513.647Z" transform="translate(-668.618 -417.359)" opacity="0.25"/>
          <path id="Path_73" data-name="Path 73" d="M700.611,552.309c-6.08-.2-23.331-11.383-23.331-11.383s18.021-9.992,24.1-9.787a10.6,10.6,0,1,1-.77,21.17Z" transform="translate(-651.086 -429.568)" opacity="0.25"/>
          <path id="Path_74" data-name="Path 74" d="M750.827,431.869c.777,5.8,13.952,21.272,13.952,21.272s8.676-18.178,7.9-23.978a10.947,10.947,0,0,0-12.337-9.154A10.675,10.675,0,0,0,750.827,431.869Z" transform="translate(-674.475 -394.157)" opacity="0.25"/>
          <path id="Path_75" data-name="Path 75" d="M690.623,476.556c2.549,5.309,19.936,16.283,19.936,16.283s2.624-19.841.075-25.151a11.212,11.212,0,0,0-14.613-5.153,10.428,10.428,0,0,0-5.4,14.02Z" transform="translate(-655.023 -407.409)" opacity="0.25"/>
          <path id="Path_76" data-name="Path 76" d="M639.2,529.826c1.574,5.65,16.787,19.289,16.787,19.289s6.073-19.125,4.492-24.776a11.084,11.084,0,0,0-13.5-7.5,10.551,10.551,0,0,0-7.784,12.984Z" transform="translate(-638.849 -424.902)" opacity="0.25"/>
        </g>
        <g id="Group_16" data-name="Group 16" transform="translate(80.338 12.779)" opacity="0.1">
          <path id="Path_77" data-name="Path 77" d="M667.23,427.073s2.454-49.695,30.835-77.408a74.351,74.351,0,0,0,22.117-42.681,122.316,122.316,0,0,0,.982-23.174" transform="translate(-646.972 -252.177)" fill="none" stroke="#535461" stroke-miterlimit="10" stroke-width="2"/>
          <path id="Path_78" data-name="Path 78" d="M762.492,251.441c-2,5.521-18.192,18.076-18.192,18.076s-4.608-19.439-2.631-24.994a11.1,11.1,0,0,1,14.02-6.53,10.5,10.5,0,0,1,6.8,13.448Z" transform="translate(-670.518 -237.399)" fill="#ffb500"/>
          <path id="Path_79" data-name="Path 79" d="M769.574,302.511c-4.771,3.6-25.485,5.678-25.485,5.678s7.136-18.785,11.935-22.377a11.314,11.314,0,0,1,15.465,1.84,10.312,10.312,0,0,1-1.915,14.859Z" transform="translate(-671.445 -252.1)" fill="#ffb500"/>
          <path id="Path_80" data-name="Path 80" d="M741.017,377.876c-6.032.777-24.987-7.5-24.987-7.5s16.031-12.753,22.056-13.523a10.95,10.95,0,0,1,12.385,9.086A10.716,10.716,0,0,1,741.017,377.876Z" transform="translate(-662.511 -275.406)" fill="#ffb500"/>
          <path id="Path_81" data-name="Path 81" d="M705.244,431.139c-5.807,1.745-25.934-3.306-25.934-3.306s13.557-15.165,19.364-16.91a11.107,11.107,0,0,1,13.8,6.945,10.524,10.524,0,0,1-7.232,13.27Z" transform="translate(-650.819 -292.497)" fill="#ffb500"/>
          <path id="Path_82" data-name="Path 82" d="M710.918,303.392c2.727,5.221,20.5,15.615,20.5,15.615s1.915-19.909-.818-25.137a11.226,11.226,0,0,0-14.791-4.7,10.394,10.394,0,0,0-4.894,14.218Z" transform="translate(-660.514 -253.52)" fill="#ffb500"/>
          <path id="Path_83" data-name="Path 83" d="M669.547,364.749c4.233,4.2,24.421,9,24.421,9s-4.369-19.548-8.6-23.747a11.335,11.335,0,0,0-15.581-.232,10.3,10.3,0,0,0-.239,14.974Z" transform="translate(-646.72 -272.23)" fill="#ffb500"/>
          <path id="Path_84" data-name="Path 84" d="M639.4,431.407c3.408,4.826,22.493,12.848,22.493,12.848s-.879-19.977-4.287-24.81a11.308,11.308,0,0,0-15.315-2.727,10.34,10.34,0,0,0-2.89,14.688Z" transform="translate(-637.509 -293.903)" fill="#ffb500"/>
        </g>
        <path id="Path_108" data-name="Path 108" d="M663.7,284.273s-2.113-16.16-13.461-16.5,1.779,20.046,3.115,21.886c.784,1.07.157,4.049-.491,6.346a47.029,47.029,0,0,0-1.165,5.023,11.731,11.731,0,0,1-2.563,5.814,29.089,29.089,0,0,0-4.567,7.647s-3.34.143-4.56-.682-9.01-3.667-9.344-3.21c-.075.1-.286.136-.579.129a9.379,9.379,0,0,1-1.363-.17c-.061-.382-.129-.763-.225-1.159,0,0-.961-.416-2.045-1v-.068h0c.252-.641.416-1.329.682-1.956v-.055h0a3.034,3.034,0,0,1,.866-1.227c1.043-.838,2.549-.552,3.81-.968a4.378,4.378,0,0,0,.416-.164l.15-.089.232-.129.164-.116.184-.136.164-.143a1.6,1.6,0,0,1,.157-.15l.143-.17.143-.164.13-.184c.041-.061.089-.116.123-.177s.082-.13.116-.2l.109-.2.1-.2.089-.211a2.018,2.018,0,0,0,.088-.218.772.772,0,0,1,.075-.218c.027-.075.041-.15.068-.225s0-.143.055-.225c.022-.076.04-.154.055-.232l.041-.225a.61.61,0,0,1,.034-.245c.034-.082,0-.143,0-.211v-.266c0-.064,0-.127,0-.191V298.6a6.8,6.8,0,0,0-.13-.831c-.314-1.363-.934-2.829-.5-4.049a1.124,1.124,0,0,1,.055-.136,2.137,2.137,0,0,1,.2-.389,2.8,2.8,0,0,1,1.131-.934c.4-.2.832-.361,1.241-.532A9.539,9.539,0,0,0,640.581,289h0a6.3,6.3,0,0,0,1.363-3.081,4.9,4.9,0,0,0,0-1.547v-.143h0a14.45,14.45,0,0,1-.613-2.726,3.478,3.478,0,0,1,.157-1.07q.082-.245.184-.491l.055-.116c.075-.157.157-.314.238-.463a.494.494,0,0,0,.048-.082l.266-.423.061-.089c.1-.15.2-.3.307-.45.252-.361.518-.716.763-1.084h0c.116-.17.225-.348.327-.525h0c.1-.184.2-.361.286-.545v-.089a6.144,6.144,0,0,0,.225-.586l.062-.2c.061-.225.116-.443.157-.682a1.306,1.306,0,0,1,0-.164c0-.2.055-.409.068-.613a1.025,1.025,0,0,1,0-.15v-.723a1.589,1.589,0,0,0,0-.177,3.688,3.688,0,0,0-.048-.723,18.557,18.557,0,0,0-.45-2.542c-.293-1.22-.811-2.617-2-2.945a4.884,4.884,0,0,0-1.854.082,8.9,8.9,0,0,1-5.507-1.4,44.245,44.245,0,0,1-4.669-3.49c-1.036-.811-2.318-1.616-3.558-1.213a9.532,9.532,0,0,0-1.261.641,1.429,1.429,0,0,1-.273.082,6.527,6.527,0,0,1-1.309.109h-.123c-.375-1.2-.777-2.386-1.227-3.558-1.138-2.979-2.59-5.971-5.051-7.934a20.347,20.347,0,0,0-4.662-2.542c-5-2.181-10.49-4.4-15.676-2.835a23.354,23.354,0,0,0-6.332,3.408l-8.377,5.719-.627-.191c-1.227-.354-2.495-.566-3.231-.811l-.129-.041c-2.359-.879-4.717-2.808-4.771-5.4a5.806,5.806,0,0,1,.116-1.193,19.153,19.153,0,0,1,.77-2.42c.171-.463.314-.934.457-1.4l.136-.5c.082-.3.157-.6.232-.9l.143-.682c.055-.245.1-.484.143-.729s.1-.518.13-.777a.853.853,0,0,1,.054-.361c.1-.743.177-1.486.218-2.229h0a11.656,11.656,0,0,1,.041-1.193V233.44h0a27.985,27.985,0,0,0-4.7-14.79,8.866,8.866,0,0,0-.92,3.633,1.365,1.365,0,0,1-.136.682.886.886,0,0,1-1.275.054,12.494,12.494,0,0,1-.954-1.1,2.344,2.344,0,0,0-2.842-.341,2.576,2.576,0,0,0-1.043,2.76,10.721,10.721,0,0,0-10.708.682,3.967,3.967,0,0,0-1.847,2.345h0a2.727,2.727,0,0,0,.32,1.9c.579,1.131,1.7,2.154,2.44,3.313a28.535,28.535,0,0,0-4.458,9.624l-.6.75A21.062,21.062,0,0,0,545.275,246a4.081,4.081,0,0,0-1.281,3.408l-10.4,13.052s-11.13,15.179-12.269,18.614c-.232.682-4.771,5.957,2.106,12.371s8.233,7.1,9.235,9.283c.586,1.275,5.071,3.6,8.7,5.31l1.268.593c-.293,3.776,1.466,8.179,6.775,13.25a9.136,9.136,0,0,1,.157,1.82c0,4.464,2,11.86,2,11.86s2.835,4.464-.832,7.388-4.492,4.608-2.236,6.979l.068.068-.334,6.707h-.981s-8.861,6.182-10.7,9.794-5.167,13.25-5.167,13.25-.681,9.276-1.67,10.653,0,7.048,0,7.048-.17,8.765,2,10.83,1.507,7.218,1.507,7.218a24.376,24.376,0,0,0,.381,3.333c-2.324-.682-6.434-1.131-7.143,4.233a57.25,57.25,0,0,0-.5,12.269s-2,9.017-3.5,11.587-4.676,25.382,9.426,21.484a6.057,6.057,0,0,0,3.408-3.5,15.918,15.918,0,0,0,1.465-1.827c-.054,4.451,1.172,8.213,5.514,7.293,0,0,2.495-.552,3.619-5.8a54.076,54.076,0,0,0,6.134-7.164l4.028-10.047h0l.307-.77,3.749-4.021a101.177,101.177,0,0,0,19.084,4.008,46.954,46.954,0,0,0,5.725.259,44.091,44.091,0,0,0,9.883-.934c6.08.845,16.685,1.54,25.6-1.9,13.345-5.153,4.171-16.5,1.833-18.907s-9.713-9.542-10.305-10.1v-.041s1.363-41.25-1.506-42.449-12.343-11.348-12.343-11.348l1-6.53s4.669.518,4.839-3.612,0-10.312,0-10.312l6.134-11s7.429-4.41,10.8-5.9c.177.116.368.239.579.354,3.667,2.1,11.519,4.4,14.259,3.885,3.674-.682,11.014.92,15.676,1.363s6.816-4.233,6.339-4.771,1.895-5.8,1.895-5.8,4.451-21.545,3.449-24.98S663.7,284.273,663.7,284.273ZM543.85,422.513c.389.191.791.375,1.206.559a65.176,65.176,0,0,0,6.693,2.372l4.171,1.547s-6.284.15-9.42.307a9.255,9.255,0,0,1-4.049-1.874A6.949,6.949,0,0,1,543.85,422.513Zm63.026-120.369c-.075-.2-.143-.423-.2-.641.573-.143,1.131-.307,1.69-.491-.375.429-.832.941-1.363,1.493C606.958,302.383,606.911,302.267,606.877,302.145Zm-70.2-17.04s2.978-7.341,5.269-12.371q.136.607.307,1.206c-.1,0-.082-.109.313.92v.055a15.083,15.083,0,0,0,6.271,7.5,13.889,13.889,0,0,0,2.972,1.363c0-.034,0-.068,0-.1a.972.972,0,0,0,0-.2.709.709,0,0,0,0-.123.86.86,0,0,0,0-.191l-.041-.1a1.019,1.019,0,0,0-.1-.191l-.061-.068a.468.468,0,0,0-.1-.109c.464.293.934.573,1.4.859.1.055.2.123.3.184.484.279.968.545,1.459.811l.354.2c.579.307,1.172.607,1.765.893l.089.041.736.341,1.159.525a2.044,2.044,0,0,0,1.213.239,1.938,1.938,0,0,0,.736-.4l.225-.17c1.411-1.05,3.21-1.322,4.819-2s3.21-2.093,3.108-3.885a4.124,4.124,0,0,0-1.786-2.89c-.92-.682-1.984-1.186-2.917-1.868-1.724-1.268-2.924-3.647-2.379-5.623a3.566,3.566,0,0,1,.15-.429l.041-.1q.082-.17.184-.348c0-.034.041-.075.068-.116a4.462,4.462,0,0,1,.777-.866,12.929,12.929,0,0,1,1.213-.9l8.22-5.541c.62-.423,1.24-.838,1.881-1.227h0a18.687,18.687,0,0,1,1.7-.927c.171-.075.341-.157.518-.225l.341-.143c.307-.116.614-.225.934-.32.17-.041.4-.082.682-.123a44.567,44.567,0,0,1-3.51,7.9,6.128,6.128,0,0,0-.641,1.411,1.769,1.769,0,0,0-.075.423,4.209,4.209,0,0,0,.382,1.772c.477,1.281.682,2.236,1.765,3,.286.2.552.4.784.593a4.778,4.778,0,0,1-.089.613,26.525,26.525,0,0,0-.177,3.047,25.143,25.143,0,0,0,4.771,14.784l-.273.307a24.969,24.969,0,0,1-5.023,4.464c-.218.136-.436.266-.682.389a7.686,7.686,0,0,1-.8-1.738,2.14,2.14,0,0,1-2.726-1.2c-.968-1.895-3.974,0-3.974,0s-6.816-3.953-7.17-2.236a1.715,1.715,0,0,1-.389.723l-.4-.382s-1.568.518-3.769,1.527a4.226,4.226,0,0,1-2.454-1.527c-.681-.886-.5.423-.075,2.781l-.054.034-.8-.293c-4.71-1.731-15.915-6.23-16.44-10.019Zm76.965,17.149c-.307-.961-1.793-1.711-2.9-2.154a24.537,24.537,0,0,0,12.385-13.052c.1-.252.2-.511.293-.77.2-.048.4-.082.586-.143a2.883,2.883,0,0,0,1.949-1.431,3.213,3.213,0,0,0,.2-1.084c.054-.825.089-1.649.109-2.474v-.116a61.349,61.349,0,0,0-1.506-15.043l.736.607h0c.286.239.573.477.852.723a5.844,5.844,0,0,1,.682.682l.109.109c.218.218.429.443.627.682a.765.765,0,0,1,.068.089,8.155,8.155,0,0,1,.5.682l.17.266a6.014,6.014,0,0,1,.368.682l.068.136a6.866,6.866,0,0,1,.273.736l.061.17c.061.218.109.436.157.682a1.579,1.579,0,0,0,.068.3c.041.232.068.47.1.716v.259c0,.225.034.457.048.682s0,.293,0,.436a30.621,30.621,0,0,1-2.795,13.311,52,52,0,0,1-7.245,11.485,15.27,15.27,0,0,0-2.392,3.517,7.09,7.09,0,0,0-.266.757c-1.172-.157-2.985-.491-3.285-1.472Z" transform="translate(-519.641 -218.65)" fill="url(#linear-gradient)"/>
        <path id="Path_109" data-name="Path 109" d="M713.885,319.068c1.022,3.408-3.524,24.762-3.524,24.762s-2.385,5.255-1.929,5.753-1.7,5.153-6.475,4.7-12.268-2.045-16.017-1.363c-2.8.511-10.817-1.772-14.565-3.851-1.275-.682-2.045-1.4-1.977-1.943.293-2.154,7.45-11.928,7.45-11.928a19.989,19.989,0,0,0,3.271.586c.3,0,.518-.034.593-.13.341-.457,8.295,2.386,9.542,3.183s4.655.647,4.655.647a28.741,28.741,0,0,1,4.662-7.579,11.5,11.5,0,0,0,2.624-5.766,44.848,44.848,0,0,1,1.186-4.982c.682-2.276,1.3-5.228.5-6.291-1.363-1.82-14.77-22.036-3.183-21.695s13.748,16.358,13.748,16.358S712.863,315.66,713.885,319.068Z" transform="translate(-567.324 -242.376)" fill="#fbbebe"/>
        <path id="Path_110" data-name="Path 110" d="M639.038,346.958l-9.542,4.089-11.076,3.408s-25.389-20.618-18.914-22.152a11.078,11.078,0,0,0,3.19-1.363,25.176,25.176,0,0,0,5.132-4.423,45.152,45.152,0,0,0,4.458-5.773s25.048-1.193,21.129,4.771c-1.527,2.324-1.009,6.1.191,9.842.068.225.143.45.218.682A63.063,63.063,0,0,0,639.038,346.958Z" transform="translate(-544.734 -251.127)" fill="#fbbebe"/>
        <path id="Path_111" data-name="Path 111" d="M559.364,527s-4.4-4.09-6,2.208a64.743,64.743,0,0,0-1.895,10.326s-2.426,7.422-3.708,9.46-6.209,20.993,3.2,19.084c0,0,3.462-.736,4.137-8.731s6.5-31.844,6.5-31.844Z" transform="translate(-527.82 -316.416)" fill="#3f3d56"/>
        <path id="Path_112" data-name="Path 112" d="M631.77,530.714c-9.542,3.572-20.952,2.651-26.984,1.772-2.6-.375-4.2-.75-4.2-.75l-29.82-3.067-.6.627-3.83,3.987L561.907,544s-11.928,16.358-13.291,6.645a39.913,39.913,0,0,1-.252-6.407c.272-10.353,2.978-24.094,2.978-24.094l27.093-3.578,17.04-8.861.184-9.242.041-2.27.116-5.7,23.174,2.215,4.089,9.2.041.041c.6.559,8.234,7.722,10.524,10.013S645.4,525.6,631.77,530.714Z" transform="translate(-528.776 -305.21)" fill="#fbbebe"/>
        <path id="Path_113" data-name="Path 113" d="M566.479,553.61s-12.166.511-12.95-1.67l-3.769,8.99s11.076,4.26,12.609,2.638Z" transform="translate(-529.231 -324.773)" fill="#ffb500"/>
        <path id="Path_114" data-name="Path 114" d="M536.246,513.272s-7.92-3.919-8.943,3.578a55.278,55.278,0,0,0-.511,12.187s-2.045,8.942-3.578,11.5-4.771,25.164,9.624,21.3c0,0,5.282-1.445,4.43-10.735s2.617-37.658,2.617-37.658Z" transform="translate(-520.325 -312.135)" fill="#3f3d56"/>
        <path id="Path_115" data-name="Path 115" d="M581.777,487.75l24.707,21.811s14.313,7.668-2.726,20.789c0,0-7.668,3.237-19.425,2.045a104.279,104.279,0,0,1-21.47-4.6S554,526.43,550.935,531.2s-9.883,15.165-9.883,15.165-8.349,16.528-13.8-3.919l6.986-19.936s.341-6.645,0-8.179,4.6-8.349,7.157-6.134,5.964,5.282,8.861,5.112,10.224-.341,10.224-.341l-4.26-1.534s-12.269-3.408-11.417-5.964,6.816-15,6.816-15Z" transform="translate(-522.064 -304.334)" opacity="0.1"/>
        <path id="Path_116" data-name="Path 116" d="M601.759,530.349a27.031,27.031,0,0,1-4.321,1.261,47.839,47.839,0,0,1-15.1.784,106.383,106.383,0,0,1-19.514-3.974c-1.254-.382-1.956-.627-1.956-.627S552,526.43,548.935,531.2c-2.045,3.142-5.664,8.717-7.92,12.166l-1.963,3s-8.35,16.528-13.8-3.919l6.986-19.936s.341-6.645,0-8.179c-.232-1.043,1.97-4.512,4.205-5.937,1.057-.682,2.127-.913,2.951-.2a33.562,33.562,0,0,0,5.453,4.151,6.528,6.528,0,0,0,3.408.961c2.9-.17,10.224-.341,10.224-.341l-4.26-1.534a66.712,66.712,0,0,1-6.816-2.352c-2.651-1.118-4.969-2.454-4.58-3.612.852-2.556,6.816-15,6.816-15l30.16-2.726,8.574,7.573,3.674,3.237,12.459,11S618.8,517.229,601.759,530.349Z" transform="translate(-521.427 -304.334)" fill="#fbbebe"/>
        <path id="Path_117" data-name="Path 117" d="M595.811,530.861s-6.475-8.69-21.811-6.3" transform="translate(-536.949 -315.922)" fill="none" stroke="#000" stroke-miterlimit="10" stroke-width="1" opacity="0.1"/>
        <path id="Path_118" data-name="Path 118" d="M532.191,536.63l-4.941,11.328s5.453,12.528,16.017,10.654l6.5-11.771S535.1,545.313,532.191,536.63Z" transform="translate(-522.064 -319.898)" opacity="0.1"/>
        <path id="Path_119" data-name="Path 119" d="M531.191,537.63l-4.941,11.328s5.453,12.528,16.017,10.653l6.5-11.771S534.1,546.313,531.191,537.63Z" transform="translate(-521.745 -320.217)" fill="#ffb500"/>
        <path id="Path_120" data-name="Path 120" d="M673.37,367.9a12.2,12.2,0,0,0-2.045.8c-1.274-.682-2.045-1.4-1.977-1.943.293-2.154,7.45-11.928,7.45-11.928a20.012,20.012,0,0,0,3.272.586C681.221,362.961,675.462,367.412,673.37,367.9Z" transform="translate(-567.308 -262.011)" opacity="0.1"/>
        <path id="Path_121" data-name="Path 121" d="M639.038,352.767l-9.542,4.089-11.076,3.408s-25.389-20.618-18.914-22.152a11.079,11.079,0,0,0,3.19-1.363c3.817,5.016,12.828,10.224,12.828,10.224,7.538,2.726,14.388-2.249,18.083-5.834A61.616,61.616,0,0,0,639.038,352.767Z" transform="translate(-544.734 -256.254)" opacity="0.1"/>
        <path id="Path_122" data-name="Path 122" d="M637.519,359.391c-2.215.511-12.269,6.3-12.269,6.3l-6.3,10.905s.17,6.134,0,10.224S614,390.4,614,390.4l-.232.1c-1.22.511-6.945,2.917-6.945,2.972s-11.737-1.193-11.737-1.193l-23-3.749s-7.327-.341-9.713-2.727l-.068-.068c-2.3-2.351-1.432-4.049,2.283-6.918s.852-7.327.852-7.327-2.045-7.327-2.045-11.757-2.215-4.26-2.215-4.26-1.534,0,5.282-4.43-.852-25.048,1.534-22.152,6.816,1.363,7.157-.341,7.327,2.215,7.327,2.215,3.067-1.874,4.09,0a2.222,2.222,0,0,0,2.726,1.193c1.7,5.623,14.313,12.95,14.313,12.95,11.246,4.09,20.959-9.031,20.959-9.031s3.749,1.022,4.26,2.57,4.771,1.472,4.771,1.472,5.112.559,5.282,2.093,5.112,3.578,5.112,3.578C646.039,353.939,639.734,358.88,637.519,359.391Z" transform="translate(-532.82 -253.507)" fill="#072a52"/>
        <path id="Path_123" data-name="Path 123" d="M614.6,415.032l-.232,1.459c-1.22.511-6.945,2.917-6.945,2.972s-11.737-1.193-11.737-1.193l-23-3.749s-7.327-.341-9.713-2.726l-.068-.068.068-1.3,3.748-.682s36.806,2.045,41.918,4.43Z" transform="translate(-533.415 -279.498)" opacity="0.1"/>
        <path id="Path_124" data-name="Path 124" d="M623.951,501.082c0,.845-.041,1.322-.041,1.322s-7.156-11.076-16.529-5.623a12.016,12.016,0,0,1-7.177,1.779,11.352,11.352,0,0,1-3.714-.968,14.667,14.667,0,0,1-5.126-3.878s-16.358,3.408-21.981,8.009-10.223-1.363-10.223-1.363-1.6,7-3.6,8.724c-2.651-1.118-4.969-2.454-4.58-3.612.852-2.556,6.816-15,6.816-15l30.16-2.726,8.575,7.573.116-5.7,23.174,2.215,4.089,9.2Z" transform="translate(-529.606 -304.334)" opacity="0.1"/>
        <path id="Path_125" data-name="Path 125" d="M557.54,411.75s36.806,2.045,41.918,4.43l5.964.852-1.023,6.475s9.713,10.054,12.61,11.246,1.534,42.088,1.534,42.088-7.157-11.076-16.529-5.623S586,468.151,586,468.151s-16.358,3.408-21.981,8.009-10.224-1.363-10.224-1.363-1.874,8.179-4.089,9.031-2.726,6.3-2.726,6.3-6.134-1.193-6.134-3.067a4.676,4.676,0,0,0-1.363-3.919c-1.193-1.363-1.363-5.793-1.363-5.793s.682-5.112-1.534-7.157-2.045-10.735-2.045-10.735-1.029-5.623,0-6.986,1.7-10.565,1.7-10.565,3.408-9.542,5.282-13.121,10.906-9.713,10.906-9.713h1l.341-6.646Z" transform="translate(-524.238 -280.135)" fill="#ffb500"/>
        <circle id="Ellipse_7" data-name="Ellipse 7" cx="1.077" cy="1.077" r="1.077" transform="translate(73.005 143.829)" fill="#3f3d56"/>
        <circle id="Ellipse_8" data-name="Ellipse 8" cx="1.077" cy="1.077" r="1.077" transform="translate(67.265 168.257)" fill="#3f3d56"/>
        <circle id="Ellipse_9" data-name="Ellipse 9" cx="1.077" cy="1.077" r="1.077" transform="translate(74.824 159.962)" fill="#3f3d56"/>
        <path id="Path_126" data-name="Path 126" d="M561.927,424h1.363s-8.179,18.744-8.629,13.516S561.927,424,561.927,424Z" transform="translate(-530.785 -284.036)" opacity="0.1"/>
        <path id="Path_127" data-name="Path 127" d="M576.857,426s-9.318,14.313-4.771,16.358,8.629-15.677,8.629-15.677Z" transform="translate(-535.942 -284.673)" opacity="0.1"/>
        <path id="Path_128" data-name="Path 128" d="M597.83,438.12s3.524,21.729,7.5,25.934-.682,7.157-.682,7.157,13.973,1.247,18.4,2.154,11.246-1.022,8.52-2.835-.45-21.129-.225-22.043S622.6,465.24,597.83,438.12Z" transform="translate(-544.537 -288.532)" opacity="0.1"/>
        <path id="Path_129" data-name="Path 129" d="M575.67,392.8c.791-.341,13.516-18.212,16.583-16.774S575.67,392.8,575.67,392.8Z" transform="translate(-537.481 -268.733)" opacity="0.1"/>
        <path id="Path_130" data-name="Path 130" d="M576.177,377.5s-5.112,7.838-3.633,9.2S576.177,377.5,576.177,377.5Z" transform="translate(-536.4 -269.23)" opacity="0.1"/>
        <path id="Path_131" data-name="Path 131" d="M588.07,334s5.18,10.34,3.7,12.269S588.07,334,588.07,334Z" transform="translate(-541.429 -255.379)" opacity="0.1"/>
        <path id="Path_132" data-name="Path 132" d="M672.076,354.83s-1.022,6.025-2.385,6.25S672.076,354.83,672.076,354.83Z" transform="translate(-567.323 -262.011)" opacity="0.1"/>
        <path id="Path_133" data-name="Path 133" d="M637.33,357.67s14.429,3.531,15.568,4.321S640.4,362.782,637.33,357.67Z" transform="translate(-557.114 -262.915)" opacity="0.1"/>
        <path id="Path_134" data-name="Path 134" d="M713.125,369.431s-1.813-7.047-4.2-6.932S713.125,369.431,713.125,369.431Z" transform="translate(-579.746 -264.453)" opacity="0.1"/>
        <path id="Path_135" data-name="Path 135" d="M693.086,298.112c-.886,1.833-2.815,3.3-2.788,5.337a14.353,14.353,0,0,0,.682,2.815,5.684,5.684,0,0,1-1.363,4.58,9.769,9.769,0,0,1-4.042,2.727,5.023,5.023,0,0,0-2.427,1.452c-.893,1.288-.116,3.006.252,4.533.586,2.461-.382,5.535-2.788,6.3-1.288.409-2.829.13-3.892.954s-1.172,2.474-1.833,3.7a4.24,4.24,0,0,1-5.548,1.663,4.281,4.281,0,0,1,.239-1.854,3.49,3.49,0,0,1-3.892-1.588,4.649,4.649,0,0,1,.034-4.09,15.318,15.318,0,0,1,2.44-3.49,51.417,51.417,0,0,0,7.4-11.383,29.617,29.617,0,0,0,2.856-13.2,10.09,10.09,0,0,0-.77-3.94,9.77,9.77,0,0,0-2.685-3.258c-.566-.491-1.166-.954-1.752-1.425-.409-.327-.818-.681-1.206-.995-.532-.47-2.645-2.195-2.474-3.026.1-.477,1.527-.409,2.774-.422a6.771,6.771,0,0,0,1.363-.109,1.359,1.359,0,0,0,.28-.082,10.69,10.69,0,0,1,1.288-.634c1.268-.4,2.576.4,3.633,1.206a45.081,45.081,0,0,0,4.771,3.456,9.324,9.324,0,0,0,5.623,1.363,5.09,5.09,0,0,1,1.895-.082c1.207.32,1.738,1.7,2.045,2.917C693.7,293.709,694.054,296.095,693.086,298.112Z" transform="translate(-565.998 -239.005)" fill="#3f3d56"/>
        <path id="Path_136" data-name="Path 136" d="M590.329,261.378a7.026,7.026,0,0,0-.777.136,12.56,12.56,0,0,0-2.1.8,30.687,30.687,0,0,0-3.408,2.045l-8.4,5.494a6.917,6.917,0,0,0-2.045,1.758c-1.425,2.092-.089,5.085,1.977,6.557.954.682,2.045,1.159,2.978,1.854a4.09,4.09,0,0,1,1.827,2.863c.1,1.779-1.534,3.176-3.176,3.851s-3.483.941-4.921,1.983a2.833,2.833,0,0,1-.982.559,2.153,2.153,0,0,1-1.24-.239,51.506,51.506,0,0,1-7.416-3.824,1,1,0,0,1,.307,1.07,14.8,14.8,0,0,1-8.459-21.572,42.957,42.957,0,0,0,2.726-4.451,5.458,5.458,0,0,0,0-5.01c-.681-1.016-1.874-1.7-2.229-2.863s.382-2.563,1.275-3.51c1.97-2.045,4.689-3.272,6.864-5.139s3.817-4.962,2.583-7.545c-.981-2.045-3.619-3.565-3.176-5.793a3.946,3.946,0,0,1,1.888-2.352,11.226,11.226,0,0,1,10.905-.682,2.515,2.515,0,0,1,1.07-2.726,2.447,2.447,0,0,1,2.9.334,12.514,12.514,0,0,0,.968,1.1.934.934,0,0,0,1.3-.055,1.285,1.285,0,0,0,.143-.682,8.558,8.558,0,0,1,.94-3.606,27.406,27.406,0,0,1,3.224,24.749,9.773,9.773,0,0,0-.906,3.578c.075,2.57,2.481,4.478,4.894,5.35l.129.041c.757.245,2.045.457,3.3.8,1.649.457,3.238,1.152,3.408,2.454C597.077,260.826,592.483,261.085,590.329,261.378Z" transform="translate(-530.104 -219.631)" fill="#3f3d56"/>
        <path id="Path_137" data-name="Path 137" d="M544.775,275.691c-1.247,1.363-7.722,16.7-7.722,16.7.538,3.756,11.982,8.22,16.828,9.944,1.309.47,2.14.736,2.14.736l4.655,4.09s-4.771,26.357-5.153,19.882-8.819-9.774-8.819-9.774-2.208-.9-4.853-2.12c-3.708-1.7-8.288-4-8.861-5.262-1.022-2.161-2.385-2.842-9.433-9.2s-2.386-11.587-2.154-12.269c1.131-3.408,12.494-18.451,12.494-18.451l16.447-20.059s4.539-18.628,15.949-11.362-13,24.653-13,24.653S546.023,274.328,544.775,275.691Z" transform="translate(-519.653 -224.449)" fill="#fbbebe"/>
        <path id="Path_138" data-name="Path 138" d="M571.035,337.746s-4.771,26.357-5.153,19.882-8.82-9.774-8.82-9.774-2.208-.9-4.853-2.12c.852-6.039,7.136-10.34,12.03-12.814,1.309.47,2.14.736,2.14.736Z" transform="translate(-530.011 -255.035)" opacity="0.1"/>
        <path id="Path_139" data-name="Path 139" d="M577.125,333.8l-5-4.553s-32.321,10.224-10.51,29.595h9.195l8.425-11.192Z" transform="translate(-530.6 -253.866)" fill="#072a52"/>
        <path id="Path_140" data-name="Path 140" d="M637.958,335.324c.068.225.143.45.218.682a24.572,24.572,0,0,1-26-9.508,45.146,45.146,0,0,0,4.458-5.773s25.048-1.193,21.129,4.771C636.261,327.806,636.778,331.582,637.958,335.324Z" transform="translate(-549.106 -251.121)" opacity="0.1"/>
        <path id="Path_141" data-name="Path 141" d="M654.564,295.807a24.442,24.442,0,1,1-7.159-17.378A24.537,24.537,0,0,1,654.564,295.807Z" transform="translate(-546.976 -235.405)" fill="#fbbebe"/>
        <path id="Path_142" data-name="Path 142" d="M654.669,295.785a24.442,24.442,0,0,1-1.908,9.495,11.047,11.047,0,0,1-4.178.068,2.475,2.475,0,0,1-1.479-.682,2.726,2.726,0,0,1-.5-1.363q-.389-2.27-.763-4.526c-2.208.866-4.771.225-6.816-.934s-3.844-2.774-5.834-4.089a9.438,9.438,0,0,0-6.707-1.827,11.344,11.344,0,0,0-3.585,1.506,25.058,25.058,0,0,0-6.134,4.587c-1.241,1.363-2.324,3-4.042,3.619a4.28,4.28,0,0,1-5.337-2.726,24.023,24.023,0,0,1-.266-3.912,3.04,3.04,0,0,0-1.3-2.263,24.537,24.537,0,0,1,48.89,3.019Z" transform="translate(-547.081 -235.382)" opacity="0.1"/>
        <path id="Path_143" data-name="Path 143" d="M605.7,290.347a24.05,24.05,0,0,0,.266,3.912,4.28,4.28,0,0,0,5.337,2.726c1.718-.62,2.8-2.27,4.042-3.619a25.06,25.06,0,0,1,6.134-4.587,11.336,11.336,0,0,1,3.585-1.506c2.338-.423,4.71.538,6.707,1.827s3.762,2.91,5.835,4.089a8.1,8.1,0,0,0,6.816.934l.763,4.526a2.725,2.725,0,0,0,.5,1.363,2.474,2.474,0,0,0,1.479.682,11.033,11.033,0,0,0,5.078-.293,2.918,2.918,0,0,0,1.991-1.418,3.178,3.178,0,0,0,.2-1.077,59.1,59.1,0,0,0-3.939-25.546c-1.166-2.958-2.651-5.923-5.16-7.865a20.827,20.827,0,0,0-4.771-2.522c-5.1-2.161-10.714-4.362-16.038-2.815a24.127,24.127,0,0,0-6.468,3.408L608.51,268.9a5.966,5.966,0,0,0-1.363,1.125,6.5,6.5,0,0,0-1.029,2.249,43.618,43.618,0,0,1-3.912,8.779,4.354,4.354,0,0,0-.736,1.82,4.16,4.16,0,0,0,.4,1.752c.491,1.275.682,2.222,1.8,2.972S605.518,288.875,605.7,290.347Z" transform="translate(-545.696 -231.383)" fill="#3f3d56"/>
        <g id="Group_17" data-name="Group 17" transform="translate(23.032 10.244)" opacity="0.1">
          <path id="Path_144" data-name="Path 144" d="M577.511,309.591c-1.642.682-3.483.941-4.921,1.983a2.837,2.837,0,0,1-.981.559,2.153,2.153,0,0,1-1.24-.239,50.949,50.949,0,0,1-7.5-3.892.988.988,0,0,1,.409,1.138,15.036,15.036,0,0,1-9.46-8.745c-.545-1.4.1,1.493,0,0-.15,2.174-.791,0,0,2.045a15.036,15.036,0,0,0,9.433,8.745.989.989,0,0,0-.409-1.138,50.955,50.955,0,0,0,7.5,3.892,2.153,2.153,0,0,0,1.24.238,2.836,2.836,0,0,0,.981-.559c1.438-1.043,3.279-1.315,4.921-1.983s3.278-2.045,3.176-3.851a2.857,2.857,0,0,0-.2-.866A5.3,5.3,0,0,1,577.511,309.591Z" transform="translate(-553.432 -254.798)"/>
          <path id="Path_145" data-name="Path 145" d="M600.17,254.871a4.088,4.088,0,0,0,.123.866,17.543,17.543,0,0,1,.784-2.4,26.58,26.58,0,0,0,1.574-10.087,26.375,26.375,0,0,1-1.574,8.043A9.768,9.768,0,0,0,600.17,254.871Z" transform="translate(-568.314 -236.727)"/>
          <path id="Path_146" data-name="Path 146" d="M681.444,292.15c-.913-1.956-2.645-3.258-4.314-4.58.191.811.362,1.629.518,2.454a12.147,12.147,0,0,1,3.8,4.171,9.871,9.871,0,0,1,.764,3.742V296.09A10.1,10.1,0,0,0,681.444,292.15Z" transform="translate(-592.819 -250.839)"/>
          <path id="Path_147" data-name="Path 147" d="M570.061,239.446c.2-1,.75-.566.3-1.513-.743-1.54-2.42-2.781-3.013-4.253a2.584,2.584,0,0,0-.164.5c-.443,2.229,1.895,3.21,2.876,5.262C570.2,239.739,569.454,237.988,570.061,239.446Z" transform="translate(-557.793 -233.68)"/>
          <path id="Path_148" data-name="Path 148" d="M599.8,276.92a5.05,5.05,0,0,0-.682.123,19.7,19.7,0,0,0-5.507,2.822l-8.4,5.494a6.917,6.917,0,0,0-2.045,1.758,3.714,3.714,0,0,0-.457,3.047,3.227,3.227,0,0,1,.457-1,6.919,6.919,0,0,1,2.045-1.758l8.4-5.493a20.125,20.125,0,0,1,5.357-2.774C599.262,278.4,599.541,277.656,599.8,276.92Z" transform="translate(-562.709 -247.448)"/>
          <path id="Path_149" data-name="Path 149" d="M699.108,317.11A6.228,6.228,0,0,1,697.8,319.8a9.765,9.765,0,0,1-4.042,2.726,5.026,5.026,0,0,0-2.427,1.452,3.155,3.155,0,0,0-.266,2.57,2.107,2.107,0,0,1,.266-.525,4.873,4.873,0,0,1,2.426-1.452,9.767,9.767,0,0,0,4.042-2.726,5.685,5.685,0,0,0,1.363-4.58A.308.308,0,0,0,699.108,317.11Z" transform="translate(-597.206 -260.245)"/>
          <path id="Path_150" data-name="Path 150" d="M704.8,301.415c-.886,1.833-2.815,3.3-2.788,5.337a3.944,3.944,0,0,0,.157,1.009c.47-1.534,1.9-2.794,2.631-4.3a7.5,7.5,0,0,0,.552-4.089A6.391,6.391,0,0,1,704.8,301.415Z" transform="translate(-600.741 -254.596)"/>
          <path id="Path_151" data-name="Path 151" d="M645.731,310.9a2.474,2.474,0,0,0,1.479.682,11.036,11.036,0,0,0,5.078-.293,2.918,2.918,0,0,0,1.99-1.418,3.187,3.187,0,0,0,.2-1.077c.116-1.677.15-3.353.116-5.03,0,1-.048,1.99-.116,2.985a3.187,3.187,0,0,1-.2,1.077,2.918,2.918,0,0,1-1.99,1.418,11.035,11.035,0,0,1-5.078.293,2.473,2.473,0,0,1-1.479-.682,2.723,2.723,0,0,1-.5-1.363q-.389-2.27-.764-4.526c-2.208.866-4.771.225-6.816-.934s-3.844-2.774-5.834-4.089a9.438,9.438,0,0,0-6.707-1.827,11.343,11.343,0,0,0-3.585,1.506,25.062,25.062,0,0,0-6.134,4.587c-1.241,1.363-2.324,3-4.042,3.619a4.28,4.28,0,0,1-5.337-2.726,24.051,24.051,0,0,1-.266-3.912c-.177-1.486-.92-2.045-2.045-2.781s-1.309-1.7-1.8-2.972c-.061-.164-.13-.341-.184-.511a2.553,2.553,0,0,0-.211.8,4.159,4.159,0,0,0,.4,1.752c.491,1.275.682,2.222,1.8,2.972s1.84,1.3,2.045,2.781a24.05,24.05,0,0,0,.266,3.912,4.28,4.28,0,0,0,5.337,2.726c1.718-.62,2.8-2.27,4.042-3.619a25.066,25.066,0,0,1,6.134-4.587,11.343,11.343,0,0,1,3.585-1.506c2.338-.423,4.71.539,6.707,1.827s3.762,2.91,5.834,4.09a8.1,8.1,0,0,0,6.816.934q.382,2.263.764,4.526A2.723,2.723,0,0,0,645.731,310.9Z" transform="translate(-568.741 -252.546)"/>
          <path id="Path_152" data-name="Path 152" d="M680.617,341.284c-1.288.409-2.828.13-3.892.954s-1.172,2.474-1.833,3.7a4.24,4.24,0,0,1-5.548,1.663,4.289,4.289,0,0,1,.238-1.854,3.49,3.49,0,0,1-3.892-1.588,3.565,3.565,0,0,1-.348-.893,4.191,4.191,0,0,0,.348,2.938,3.49,3.49,0,0,0,3.892,1.588,4.289,4.289,0,0,0-.238,1.854,4.239,4.239,0,0,0,5.548-1.663c.682-1.227.729-2.842,1.833-3.7s2.6-.545,3.892-.954c2.27-.722,3.258-3.49,2.87-5.868A4.54,4.54,0,0,1,680.617,341.284Z" transform="translate(-589.026 -266.725)"/>
        </g>
        <path id="Path_153" data-name="Path 153" d="M609.641,272.014a24.474,24.474,0,0,1-2.985,5.119,7.037,7.037,0,0,0-.777.136,12.547,12.547,0,0,0-2.1.8,42.564,42.564,0,0,1,2.569-6.857C607.1,271.455,608.388,271.667,609.641,272.014Z" transform="translate(-546.432 -235.386)" fill="#ffb500"/>
        <path id="Path_154" data-name="Path 154" d="M678.278,289.717c-.566-.491-1.166-.954-1.752-1.424-.341-1.363-.682-2.992-.907-4.444a6.765,6.765,0,0,0,1.363-.109A18.762,18.762,0,0,1,678.278,289.717Z" transform="translate(-569.306 -239.375)" fill="#ffb500"/>
      </g>
      <path id="Path_250" data-name="Path 250" d="M1919,2504.675s607.733-95.51,1365.884,0" transform="translate(-1896.206 -1940.23)" fill="#1e6e41"/>
      <g id="Group_20" data-name="Group 20" transform="translate(1210.543 403.2)">
        <ellipse id="Ellipse_64" data-name="Ellipse 64" cx="20.218" cy="2.778" rx="20.218" ry="2.778" transform="translate(91.222 151.358)" fill="#ffb500" opacity="0.1"/>
        <ellipse id="Ellipse_65" data-name="Ellipse 65" cx="20.218" cy="2.778" rx="20.218" ry="2.778" transform="translate(0 140.728)" fill="#ffb500" opacity="0.1"/>
        <path id="Path_227" data-name="Path 227" d="M395.615,729.231s28.35-92.969-4.48-130.18c-24.531-27.846-52.377-24.519-64.844-21.069A22.994,22.994,0,0,0,311.416,590.3c-4.357,9.409-3.573,24.642,27.2,42.5,51.525,29.829,54.74,70.758,54.74,70.758Z" transform="translate(-284.611 -575.723)" fill="#ffb500"/>
        <path id="Path_228" data-name="Path 228" d="M328.49,589.51s83.583,26.132,64.844,138.065" transform="translate(-282.33 -574.067)" fill="none" stroke="#565987" stroke-miterlimit="10" stroke-width="1"/>
        <path id="Path_229" data-name="Path 229" d="M372.988,597.87s-11.5,7.762-7.841,19.411" transform="translate(-278.013 -573.063)" fill="none" stroke="#565987" stroke-miterlimit="10" stroke-width="1"/>
        <path id="Path_230" data-name="Path 230" d="M336,604.471s7.035-7.158,15.592-3.2" transform="translate(-281.428 -572.798)" fill="none" stroke="#565987" stroke-miterlimit="10" stroke-width="1"/>
        <path id="Path_231" data-name="Path 231" d="M365.47,636.424s12.321-6.272,15.547,1.579" transform="translate(-277.888 -568.717)" fill="none" stroke="#565987" stroke-miterlimit="10" stroke-width="1"/>
        <path id="Path_232" data-name="Path 232" d="M393.772,647.845s-9.274-.739-9.442,3.7" transform="translate(-275.623 -567.065)" fill="none" stroke="#565987" stroke-miterlimit="10" stroke-width="1"/>
        <path id="Path_233" data-name="Path 233" d="M392.772,720.519s-33.2-67.554-42.329-66.087c-4.324.706-6.329,4.962-7.225,9.252a27.208,27.208,0,0,0,1.8,16.443C349.759,690.915,362.394,711.48,392.772,720.519Z" transform="translate(-280.626 -566.272)" fill="#ffb500"/>
        <path id="Path_234" data-name="Path 234" d="M349.83,665.89s34.914,50.528,41.635,52.768" transform="translate(-279.767 -564.892)" fill="none" stroke="#565987" stroke-miterlimit="10" stroke-width="1"/>
        <line id="Line_10" data-name="Line 10" x2="8.132" transform="translate(66.86 108.883)" fill="none" stroke="#565987" stroke-miterlimit="10" stroke-width="1"/>
        <line id="Line_11" data-name="Line 11" x2="12.758" y2="0.549" transform="translate(76.605 127.376)" fill="none" stroke="#565987" stroke-miterlimit="10" stroke-width="1"/>
        <line id="Line_12" data-name="Line 12" x1="1.389" y2="6.642" transform="translate(82.978 112.58)" fill="none" stroke="#565987" stroke-miterlimit="10" stroke-width="1"/>
        <line id="Line_13" data-name="Line 13" x1="0.246" y2="6.037" transform="translate(97.685 132.797)" fill="none" stroke="#565987" stroke-miterlimit="10" stroke-width="1"/>
        <path id="Path_235" data-name="Path 235" d="M386.52,720.519s33.211-67.554,42.34-66.087c4.323.706,6.329,4.962,7.225,9.252a27.209,27.209,0,0,1-1.8,16.443C429.622,690.915,416.908,711.48,386.52,720.519Z" transform="translate(-275.36 -566.272)" fill="#ffb500"/>
        <path id="Path_236" data-name="Path 236" d="M428.545,665.89S393.721,716.418,387,718.658" transform="translate(-275.302 -564.892)" fill="none" stroke="#565987" stroke-miterlimit="10" stroke-width="1"/>
        <line id="Line_14" data-name="Line 14" x1="8.132" transform="translate(148.314 108.883)" fill="none" stroke="#565987" stroke-miterlimit="10" stroke-width="1"/>
        <line id="Line_15" data-name="Line 15" x1="12.747" y2="0.549" transform="translate(133.955 127.376)" fill="none" stroke="#565987" stroke-miterlimit="10" stroke-width="1"/>
        <line id="Line_16" data-name="Line 16" x2="1.378" y2="6.642" transform="translate(138.95 112.58)" fill="none" stroke="#565987" stroke-miterlimit="10" stroke-width="1"/>
        <line id="Line_17" data-name="Line 17" x2="0.246" y2="6.037" transform="translate(125.386 132.797)" fill="none" stroke="#565987" stroke-miterlimit="10" stroke-width="1"/>
        <path id="Path_240" data-name="Path 240" d="M304.813,678.42s-2.711,3.539,1.254,8.882,7.225,9.868,5.9,13.2c0,0-5.97-9.924-10.843-10.081S299.47,684.39,304.813,678.42Z" transform="translate(-285.905 -563.387)" fill="#ffb500"/>
        <path id="Path_241" data-name="Path 241" d="M304.813,678.42a4.174,4.174,0,0,0-.549,1.12c-4.749,5.6-7.27,10.776-2.711,10.9,4.245.123,9.342,7.717,10.563,9.644a1.2,1.2,0,0,1-.145.426c-.056.134-5.97-9.924-10.843-10.081S299.47,684.39,304.813,678.42Z" transform="translate(-285.905 -563.387)" opacity="0.1"/>
        <path id="Path_242" data-name="Path 242" d="M299.67,682.536c0,1.243.134,2.24.3,2.24s.314-1.008.314-2.24-.168-.661-.347-.661S299.67,681.281,299.67,682.536Z" transform="translate(-285.792 -562.989)" fill="#ffd037"/>
        <path id="Path_243" data-name="Path 243" d="M298.191,683.872c1.12.594,2.05.952,2.139.795s-.739-.75-1.837-1.344-.661-.168-.751,0S297.1,683.266,298.191,683.872Z" transform="translate(-286.049 -562.835)" fill="#ffd037"/>
        <path id="Path_244" data-name="Path 244" d="M317.739,678.42s2.7,3.539-1.254,8.882-7.225,9.868-5.9,13.2c0,0,5.97-9.924,10.832-10.081S323.083,684.39,317.739,678.42Z" transform="translate(-284.517 -563.387)" fill="#ffb500"/>
        <path id="Path_245" data-name="Path 245" d="M317.723,678.42a4.645,4.645,0,0,1,.549,1.12c4.738,5.6,7.269,10.776,2.71,10.9-4.245.123-9.342,7.717-10.563,9.644a1.2,1.2,0,0,0,.146.426c.056.134,5.97-9.924,10.832-10.081S323.066,684.39,317.723,678.42Z" transform="translate(-284.501 -563.387)" opacity="0.1"/>
        <path id="Path_246" data-name="Path 246" d="M321.5,682.536c0,1.243-.134,2.24-.314,2.24s-.314-1.008-.314-2.24.179-.661.347-.661S321.5,681.281,321.5,682.536Z" transform="translate(-283.245 -562.989)" fill="#ffd037"/>
        <path id="Path_247" data-name="Path 247" d="M323.229,683.872c-1.12.594-2.05.952-2.128.795s.739-.75,1.837-1.344.661-.168.739,0S324.349,683.266,323.229,683.872Z" transform="translate(-283.218 -562.835)" fill="#ffd037"/>
        <path id="Path_248" data-name="Path 248" d="M323.682,698.159s-7.572-.235-9.857-1.86-11.649-3.562-12.209-.952-11.391,12.96-2.834,13.027,19.871-1.333,22.145-2.722S323.682,698.159,323.682,698.159Z" transform="translate(-286.292 -561.507)" fill="#a8a8a8"/>
        <path id="Path_249" data-name="Path 249" d="M298.626,707c8.558.068,19.871-1.333,22.145-2.722,1.736-1.053,2.431-4.85,2.666-6.6h.246s-.482,6.1-2.756,7.494-13.6,2.789-22.145,2.722c-2.476,0-3.36-.9-3.282-2.24C295.848,706.529,296.789,707,298.626,707Z" transform="translate(-286.293 -561.073)" opacity="0.2"/>
      </g>
      <g id="undraw_i_can_fly_7egl" transform="translate(993.91 46.445)" opacity="0.19">
        <path id="Path_251" data-name="Path 251" d="M831.938,193.513a16.882,16.882,0,0,1,16.859-16c.513,0,1.02.027,1.521.072a22.43,22.43,0,0,1,38.773-.018c.423-.032.849-.053,1.28-.053a16.882,16.882,0,0,1,16.859,16" transform="translate(-623.999 -148.425)" fill="#f2f2f2"/>
        <path id="Path_252" data-name="Path 252" d="M844.569,188.848a16.882,16.882,0,0,1,16.859-16c.513,0,1.02.027,1.521.072a22.43,22.43,0,0,1,38.773-.018c.423-.032.849-.053,1.28-.053a16.882,16.882,0,0,1,16.859,16" transform="translate(-633.114 -145.059)" fill="none" stroke="#3f3d56" stroke-miterlimit="10" stroke-width="1"/>
        <path id="Path_253" data-name="Path 253" d="M155.988,373.092a55.876,55.876,0,0,1,55.8-52.956c1.7,0,3.375.089,5.035.237a74.238,74.238,0,0,1,128.33-.061c1.4-.105,2.81-.176,4.237-.176a55.876,55.876,0,0,1,55.8,52.956" transform="translate(-136.216 -232.867)" fill="#f2f2f2"/>
        <path id="Path_254" data-name="Path 254" d="M197.794,357.651a55.876,55.876,0,0,1,55.8-52.956c1.7,0,3.375.089,5.035.237a74.238,74.238,0,0,1,128.33-.061c1.4-.105,2.81-.176,4.237-.176a55.876,55.876,0,0,1,55.8,52.956" transform="translate(-166.384 -221.725)" fill="none" stroke="#3f3d56" stroke-miterlimit="10" stroke-width="1"/>
        <path id="Path_255" data-name="Path 255" d="M84.962,144.723a22.842,22.842,0,0,1,22.811-21.649c.694,0,1.38.036,2.058.1a30.349,30.349,0,0,1,52.462-.025c.572-.043,1.149-.072,1.732-.072a22.842,22.842,0,0,1,22.811,21.648" transform="translate(-84.962 -106.317)" fill="#f2f2f2"/>
        <path id="Path_256" data-name="Path 256" d="M102.053,138.411a22.842,22.842,0,0,1,22.811-21.649c.694,0,1.38.036,2.058.1a30.349,30.349,0,0,1,52.462-.025c.572-.043,1.149-.072,1.732-.072a22.842,22.842,0,0,1,22.811,21.648" transform="translate(-97.295 -101.762)" fill="none" stroke="#3f3d56" stroke-miterlimit="10" stroke-width="1"/>
      </g>
      <g id="undraw_i_can_fly_7egl-2" data-name="undraw_i_can_fly_7egl" transform="translate(562.305 1.358)" opacity="0.19">
        <path id="Path_251-2" data-name="Path 251" d="M831.938,193.513a16.882,16.882,0,0,1,16.859-16c.513,0,1.02.027,1.521.072a22.43,22.43,0,0,1,38.773-.018c.423-.032.849-.053,1.28-.053a16.882,16.882,0,0,1,16.859,16" transform="translate(-635.999 -148.425)" fill="#f2f2f2"/>
        <path id="Path_252-2" data-name="Path 252" d="M844.569,188.848a16.882,16.882,0,0,1,16.859-16c.513,0,1.02.027,1.521.072a22.43,22.43,0,0,1,38.773-.018c.423-.032.849-.053,1.28-.053a16.882,16.882,0,0,1,16.859,16" transform="translate(-645.114 -145.059)" fill="none" stroke="#3f3d56" stroke-miterlimit="10" stroke-width="1"/>
        <path id="Path_255-2" data-name="Path 255" d="M84.962,144.723a22.842,22.842,0,0,1,22.811-21.649c.694,0,1.38.036,2.058.1a30.349,30.349,0,0,1,52.462-.025c.572-.043,1.149-.072,1.732-.072a22.842,22.842,0,0,1,22.811,21.648" transform="translate(-53.962 -93.976)" fill="#f2f2f2"/>
        <path id="Path_256-2" data-name="Path 256" d="M102.053,138.411a22.842,22.842,0,0,1,22.811-21.649c.694,0,1.38.036,2.058.1a30.349,30.349,0,0,1,52.462-.025c.572-.043,1.149-.072,1.732-.072a22.842,22.842,0,0,1,22.811,21.648" transform="translate(-66.295 -89.421)" fill="none" stroke="#3f3d56" stroke-miterlimit="10" stroke-width="1"/>
      </g>
      <path id="Path_258" data-name="Path 258" d="M335.832,728.5a5.8,5.8,0,0,1-1.893-2.856,2.52,2.52,0,0,1,1.322-2.9c1.21-.47,2.509.37,3.495,1.221s2.106,1.814,3.36,1.635a5.186,5.186,0,0,1-1.6-4.839,2.05,2.05,0,0,1,.448-.975c.672-.728,1.893-.414,2.7.157,2.565,1.8,3.282,5.287,3.293,8.412a15.522,15.522,0,0,0,0-3.461,3.55,3.55,0,0,1,1.31-3.069,3.876,3.876,0,0,1,1.983-.47,4.111,4.111,0,0,1,3.226.918,3.215,3.215,0,0,1-.123,3.954,12.537,12.537,0,0,1-3.36,2.677,7.346,7.346,0,0,0-2.386,2.24,1.642,1.642,0,0,0-.179.4H340.2A20.48,20.48,0,0,1,335.832,728.5Z" transform="translate(646.735 -195.917)" fill="#ffb500"/>
      <path id="Path_259" data-name="Path 259" d="M335.832,728.5a5.8,5.8,0,0,1-1.893-2.856,2.52,2.52,0,0,1,1.322-2.9c1.21-.47,2.509.37,3.495,1.221s2.106,1.814,3.36,1.635a5.186,5.186,0,0,1-1.6-4.839,2.05,2.05,0,0,1,.448-.975c.672-.728,1.893-.414,2.7.157,2.565,1.8,3.282,5.287,3.293,8.412a15.522,15.522,0,0,0,0-3.461,3.55,3.55,0,0,1,1.31-3.069,3.876,3.876,0,0,1,1.983-.47,4.111,4.111,0,0,1,3.226.918,3.215,3.215,0,0,1-.123,3.954,12.537,12.537,0,0,1-3.36,2.677,7.346,7.346,0,0,0-2.386,2.24,1.642,1.642,0,0,0-.179.4H340.2A20.48,20.48,0,0,1,335.832,728.5Z" transform="translate(544.389 -173.093)" fill="#ffb500"/>
      <path id="Path_260" data-name="Path 260" d="M335.832,728.5a5.8,5.8,0,0,1-1.893-2.856,2.52,2.52,0,0,1,1.322-2.9c1.21-.47,2.509.37,3.495,1.221s2.106,1.814,3.36,1.635a5.186,5.186,0,0,1-1.6-4.839,2.05,2.05,0,0,1,.448-.975c.672-.728,1.893-.414,2.7.157,2.565,1.8,3.282,5.287,3.293,8.412a15.522,15.522,0,0,0,0-3.461,3.55,3.55,0,0,1,1.31-3.069,3.876,3.876,0,0,1,1.983-.47,4.111,4.111,0,0,1,3.226.918,3.215,3.215,0,0,1-.123,3.954,12.537,12.537,0,0,1-3.36,2.677,7.346,7.346,0,0,0-2.386,2.24,1.642,1.642,0,0,0-.179.4H340.2A20.48,20.48,0,0,1,335.832,728.5Z" transform="translate(436.357 -188.565)" fill="#ffb500"/>
      <path id="Path_261" data-name="Path 261" d="M335.832,728.5a5.8,5.8,0,0,1-1.893-2.856,2.52,2.52,0,0,1,1.322-2.9c1.21-.47,2.509.37,3.495,1.221s2.106,1.814,3.36,1.635a5.186,5.186,0,0,1-1.6-4.839,2.05,2.05,0,0,1,.448-.975c.672-.728,1.893-.414,2.7.157,2.565,1.8,3.282,5.287,3.293,8.412a15.522,15.522,0,0,0,0-3.461,3.55,3.55,0,0,1,1.31-3.069,3.876,3.876,0,0,1,1.983-.47,4.111,4.111,0,0,1,3.226.918,3.215,3.215,0,0,1-.123,3.954,12.537,12.537,0,0,1-3.36,2.677,7.346,7.346,0,0,0-2.386,2.24,1.642,1.642,0,0,0-.179.4H340.2A20.48,20.48,0,0,1,335.832,728.5Z" transform="translate(348.559 -173.093)" fill="#ffb500"/>
      <path id="Path_262" data-name="Path 262" d="M335.832,728.5a5.8,5.8,0,0,1-1.893-2.856,2.52,2.52,0,0,1,1.322-2.9c1.21-.47,2.509.37,3.495,1.221s2.106,1.814,3.36,1.635a5.186,5.186,0,0,1-1.6-4.839,2.05,2.05,0,0,1,.448-.975c.672-.728,1.893-.414,2.7.157,2.565,1.8,3.282,5.287,3.293,8.412a15.522,15.522,0,0,0,0-3.461,3.55,3.55,0,0,1,1.31-3.069,3.876,3.876,0,0,1,1.983-.47,4.111,4.111,0,0,1,3.226.918,3.215,3.215,0,0,1-.123,3.954,12.537,12.537,0,0,1-3.36,2.677,7.346,7.346,0,0,0-2.386,2.24,1.642,1.642,0,0,0-.179.4H340.2A20.48,20.48,0,0,1,335.832,728.5Z" transform="translate(284.119 -205.972)" fill="#ffb500"/>
      <path id="Path_264" data-name="Path 264" d="M335.832,728.5a5.8,5.8,0,0,1-1.893-2.856,2.52,2.52,0,0,1,1.322-2.9c1.21-.47,2.509.37,3.495,1.221s2.106,1.814,3.36,1.635a5.186,5.186,0,0,1-1.6-4.839,2.05,2.05,0,0,1,.448-.975c.672-.728,1.893-.414,2.7.157,2.565,1.8,3.282,5.287,3.293,8.412a15.522,15.522,0,0,0,0-3.461,3.55,3.55,0,0,1,1.31-3.069,3.876,3.876,0,0,1,1.983-.47,4.111,4.111,0,0,1,3.226.918,3.215,3.215,0,0,1-.123,3.954,12.537,12.537,0,0,1-3.36,2.677,7.346,7.346,0,0,0-2.386,2.24,1.642,1.642,0,0,0-.179.4H340.2A20.48,20.48,0,0,1,335.832,728.5Z" transform="translate(200.726 -179.186)" fill="#ffb500"/>
      <path id="Path_265" data-name="Path 265" d="M335.832,728.5a5.8,5.8,0,0,1-1.893-2.856,2.52,2.52,0,0,1,1.322-2.9c1.21-.47,2.509.37,3.495,1.221s2.106,1.814,3.36,1.635a5.186,5.186,0,0,1-1.6-4.839,2.05,2.05,0,0,1,.448-.975c.672-.728,1.893-.414,2.7.157,2.565,1.8,3.282,5.287,3.293,8.412a15.522,15.522,0,0,0,0-3.461,3.55,3.55,0,0,1,1.31-3.069,3.876,3.876,0,0,1,1.983-.47,4.111,4.111,0,0,1,3.226.918,3.215,3.215,0,0,1-.123,3.954,12.537,12.537,0,0,1-3.36,2.677,7.346,7.346,0,0,0-2.386,2.24,1.642,1.642,0,0,0-.179.4H340.2A20.48,20.48,0,0,1,335.832,728.5Z" transform="translate(117.333 -201.814)" fill="#ffb500"/>
      <path id="Path_266" data-name="Path 266" d="M335.832,728.5a5.8,5.8,0,0,1-1.893-2.856,2.52,2.52,0,0,1,1.322-2.9c1.21-.47,2.509.37,3.495,1.221s2.106,1.814,3.36,1.635a5.186,5.186,0,0,1-1.6-4.839,2.05,2.05,0,0,1,.448-.975c.672-.728,1.893-.414,2.7.157,2.565,1.8,3.282,5.287,3.293,8.412a15.522,15.522,0,0,0,0-3.461,3.55,3.55,0,0,1,1.31-3.069,3.876,3.876,0,0,1,1.983-.47,4.111,4.111,0,0,1,3.226.918,3.215,3.215,0,0,1-.123,3.954,12.537,12.537,0,0,1-3.36,2.677,7.346,7.346,0,0,0-2.386,2.24,1.642,1.642,0,0,0-.179.4H340.2A20.48,20.48,0,0,1,335.832,728.5Z" transform="translate(-0.537 -179.185)" fill="#ffb500"/>
      <path id="Path_267" data-name="Path 267" d="M335.832,728.5a5.8,5.8,0,0,1-1.893-2.856,2.52,2.52,0,0,1,1.322-2.9c1.21-.47,2.509.37,3.495,1.221s2.106,1.814,3.36,1.635a5.186,5.186,0,0,1-1.6-4.839,2.05,2.05,0,0,1,.448-.975c.672-.728,1.893-.414,2.7.157,2.565,1.8,3.282,5.287,3.293,8.412a15.522,15.522,0,0,0,0-3.461,3.55,3.55,0,0,1,1.31-3.069,3.876,3.876,0,0,1,1.983-.47,4.111,4.111,0,0,1,3.226.918,3.215,3.215,0,0,1-.123,3.954,12.537,12.537,0,0,1-3.36,2.677,7.346,7.346,0,0,0-2.386,2.24,1.642,1.642,0,0,0-.179.4H340.2A20.48,20.48,0,0,1,335.832,728.5Z" transform="translate(-145.036 -173.093)" fill="#ffb500"/>
      <g id="undraw_i_can_fly_7egl-3" data-name="undraw_i_can_fly_7egl" transform="translate(149.699 46.445)" opacity="0.19">
        <path id="Path_251-3" data-name="Path 251" d="M831.938,193.513a16.882,16.882,0,0,1,16.859-16c.513,0,1.02.027,1.521.072a22.43,22.43,0,0,1,38.773-.018c.423-.032.849-.053,1.28-.053a16.882,16.882,0,0,1,16.859,16" transform="translate(-623.999 -148.425)" fill="#f2f2f2"/>
        <path id="Path_252-3" data-name="Path 252" d="M844.569,188.848a16.882,16.882,0,0,1,16.859-16c.513,0,1.02.027,1.521.072a22.43,22.43,0,0,1,38.773-.018c.423-.032.849-.053,1.28-.053a16.882,16.882,0,0,1,16.859,16" transform="translate(-633.114 -145.059)" fill="none" stroke="#3f3d56" stroke-miterlimit="10" stroke-width="1"/>
        <path id="Path_253-2" data-name="Path 253" d="M155.988,373.092a55.876,55.876,0,0,1,55.8-52.956c1.7,0,3.375.089,5.035.237a74.238,74.238,0,0,1,128.33-.061c1.4-.105,2.81-.176,4.237-.176a55.876,55.876,0,0,1,55.8,52.956" transform="translate(-136.216 -232.867)" fill="#f2f2f2"/>
        <path id="Path_254-2" data-name="Path 254" d="M197.794,357.651a55.876,55.876,0,0,1,55.8-52.956c1.7,0,3.375.089,5.035.237a74.238,74.238,0,0,1,128.33-.061c1.4-.105,2.81-.176,4.237-.176a55.876,55.876,0,0,1,55.8,52.956" transform="translate(-166.384 -221.725)" fill="none" stroke="#3f3d56" stroke-miterlimit="10" stroke-width="1"/>
        <path id="Path_255-3" data-name="Path 255" d="M84.962,144.723a22.842,22.842,0,0,1,22.811-21.649c.694,0,1.38.036,2.058.1a30.349,30.349,0,0,1,52.462-.025c.572-.043,1.149-.072,1.732-.072a22.842,22.842,0,0,1,22.811,21.648" transform="translate(-84.962 -106.317)" fill="#f2f2f2"/>
        <path id="Path_256-3" data-name="Path 256" d="M102.053,138.411a22.842,22.842,0,0,1,22.811-21.649c.694,0,1.38.036,2.058.1a30.349,30.349,0,0,1,52.462-.025c.572-.043,1.149-.072,1.732-.072a22.842,22.842,0,0,1,22.811,21.648" transform="translate(-97.295 -101.762)" fill="none" stroke="#3f3d56" stroke-miterlimit="10" stroke-width="1"/>
      </g>
    </g>
  </g>
</svg>
